<mxfile host="app.diagrams.net" agent="Mozilla/5.0 (Windows NT 10.0; Win64; x64) AppleWebKit/537.36 (KHTML, like Gecko) Chrome/133.0.0.0 Safari/537.36" version="26.1.0">
  <diagram name="Page-1" id="jfQUb9jQX3ZqW8oKBf4c">
    <mxGraphModel dx="1050" dy="1657" grid="1" gridSize="10" guides="1" tooltips="1" connect="1" arrows="1" fold="1" page="1" pageScale="1" pageWidth="850" pageHeight="1100" math="0" shadow="0">
      <root>
        <mxCell id="0" />
        <mxCell id="1" parent="0" />
        <mxCell id="iiZEFcVaMC21RWIDHkid-34" value="C2C commerce site" style="rounded=0;whiteSpace=wrap;html=1;labelPosition=center;verticalLabelPosition=top;align=center;verticalAlign=bottom;" vertex="1" parent="1">
          <mxGeometry x="340" width="420" height="900" as="geometry" />
        </mxCell>
        <mxCell id="iiZEFcVaMC21RWIDHkid-16" style="rounded=0;orthogonalLoop=1;jettySize=auto;html=1;" edge="1" parent="1" source="iiZEFcVaMC21RWIDHkid-1" target="iiZEFcVaMC21RWIDHkid-8">
          <mxGeometry relative="1" as="geometry" />
        </mxCell>
        <mxCell id="iiZEFcVaMC21RWIDHkid-21" style="rounded=0;orthogonalLoop=1;jettySize=auto;html=1;" edge="1" parent="1" source="iiZEFcVaMC21RWIDHkid-1" target="iiZEFcVaMC21RWIDHkid-15">
          <mxGeometry relative="1" as="geometry" />
        </mxCell>
        <mxCell id="iiZEFcVaMC21RWIDHkid-26" style="rounded=0;orthogonalLoop=1;jettySize=auto;html=1;" edge="1" parent="1" source="iiZEFcVaMC21RWIDHkid-1" target="iiZEFcVaMC21RWIDHkid-25">
          <mxGeometry relative="1" as="geometry" />
        </mxCell>
        <mxCell id="iiZEFcVaMC21RWIDHkid-1" value="User" style="shape=umlActor;verticalLabelPosition=top;verticalAlign=bottom;html=1;outlineConnect=0;spacingBottom=0;spacing=2;spacingRight=0;spacingTop=0;labelPosition=center;align=center;" vertex="1" parent="1">
          <mxGeometry x="160" y="70" width="30" height="60" as="geometry" />
        </mxCell>
        <mxCell id="iiZEFcVaMC21RWIDHkid-4" value="" style="edgeStyle=orthogonalEdgeStyle;rounded=0;orthogonalLoop=1;jettySize=auto;html=1;endArrow=block;endFill=0;strokeWidth=1;jumpStyle=none;jumpSize=17;spacingTop=0;spacingBottom=0;spacing=8;" edge="1" parent="1" source="iiZEFcVaMC21RWIDHkid-2" target="iiZEFcVaMC21RWIDHkid-1">
          <mxGeometry relative="1" as="geometry">
            <mxPoint x="90" y="240" as="targetPoint" />
            <Array as="points">
              <mxPoint x="275" y="210" />
              <mxPoint x="175" y="210" />
            </Array>
          </mxGeometry>
        </mxCell>
        <mxCell id="iiZEFcVaMC21RWIDHkid-22" style="rounded=0;orthogonalLoop=1;jettySize=auto;html=1;" edge="1" parent="1" source="iiZEFcVaMC21RWIDHkid-2" target="iiZEFcVaMC21RWIDHkid-7">
          <mxGeometry relative="1" as="geometry" />
        </mxCell>
        <mxCell id="iiZEFcVaMC21RWIDHkid-2" value="Admin" style="shape=umlActor;verticalLabelPosition=bottom;verticalAlign=top;html=1;outlineConnect=0;" vertex="1" parent="1">
          <mxGeometry x="260" y="240" width="30" height="60" as="geometry" />
        </mxCell>
        <mxCell id="iiZEFcVaMC21RWIDHkid-5" value="Make a listing&lt;span style=&quot;color: rgba(0, 0, 0, 0); font-family: monospace; font-size: 0px; text-align: start; text-wrap-mode: nowrap;&quot;&gt;%3CmxGraphModel%3E%3Croot%3E%3CmxCell%20id%3D%220%22%2F%3E%3CmxCell%20id%3D%221%22%20parent%3D%220%22%2F%3E%3CmxCell%20id%3D%222%22%20value%3D%22User%22%20style%3D%22shape%3DumlActor%3BverticalLabelPosition%3Dbottom%3BverticalAlign%3Dtop%3Bhtml%3D1%3BoutlineConnect%3D0%3B%22%20vertex%3D%221%22%20parent%3D%221%22%3E%3CmxGeometry%20x%3D%22170%22%20y%3D%22120%22%20width%3D%2230%22%20height%3D%2260%22%20as%3D%22geometry%22%2F%3E%3C%2FmxCell%3E%3C%2Froot%3E%3C%2FmxGraphModel%3E&lt;/span&gt;" style="ellipse;whiteSpace=wrap;html=1;" vertex="1" parent="1">
          <mxGeometry x="365" y="300" width="120" height="80" as="geometry" />
        </mxCell>
        <mxCell id="iiZEFcVaMC21RWIDHkid-7" value="Remove a listing" style="ellipse;whiteSpace=wrap;html=1;" vertex="1" parent="1">
          <mxGeometry x="365" y="200" width="120" height="80" as="geometry" />
        </mxCell>
        <mxCell id="iiZEFcVaMC21RWIDHkid-8" value="Report listing" style="ellipse;whiteSpace=wrap;html=1;" vertex="1" parent="1">
          <mxGeometry x="350" y="10" width="120" height="80" as="geometry" />
        </mxCell>
        <mxCell id="iiZEFcVaMC21RWIDHkid-13" style="edgeStyle=orthogonalEdgeStyle;rounded=0;orthogonalLoop=1;jettySize=auto;html=1;endArrow=block;endFill=0;" edge="1" parent="1" source="iiZEFcVaMC21RWIDHkid-9" target="iiZEFcVaMC21RWIDHkid-1">
          <mxGeometry relative="1" as="geometry">
            <Array as="points">
              <mxPoint x="175" y="190" />
              <mxPoint x="175" y="190" />
            </Array>
          </mxGeometry>
        </mxCell>
        <mxCell id="iiZEFcVaMC21RWIDHkid-18" style="rounded=0;orthogonalLoop=1;jettySize=auto;html=1;" edge="1" parent="1" source="iiZEFcVaMC21RWIDHkid-9" target="iiZEFcVaMC21RWIDHkid-5">
          <mxGeometry relative="1" as="geometry" />
        </mxCell>
        <mxCell id="iiZEFcVaMC21RWIDHkid-29" style="rounded=0;orthogonalLoop=1;jettySize=auto;html=1;" edge="1" parent="1" source="iiZEFcVaMC21RWIDHkid-11" target="iiZEFcVaMC21RWIDHkid-28">
          <mxGeometry relative="1" as="geometry" />
        </mxCell>
        <mxCell id="iiZEFcVaMC21RWIDHkid-20" style="edgeStyle=orthogonalEdgeStyle;rounded=0;orthogonalLoop=1;jettySize=auto;html=1;endArrow=block;endFill=0;" edge="1" parent="1" source="iiZEFcVaMC21RWIDHkid-11" target="iiZEFcVaMC21RWIDHkid-1">
          <mxGeometry relative="1" as="geometry">
            <Array as="points">
              <mxPoint x="95" y="210" />
              <mxPoint x="175" y="210" />
            </Array>
          </mxGeometry>
        </mxCell>
        <mxCell id="iiZEFcVaMC21RWIDHkid-9" value="Seller" style="shape=umlActor;verticalLabelPosition=bottom;verticalAlign=top;html=1;outlineConnect=0;spacingBottom=0;spacing=2;spacingRight=0;spacingTop=0;labelPosition=center;align=center;" vertex="1" parent="1">
          <mxGeometry x="160" y="230" width="30" height="60" as="geometry" />
        </mxCell>
        <mxCell id="iiZEFcVaMC21RWIDHkid-24" style="rounded=0;orthogonalLoop=1;jettySize=auto;html=1;" edge="1" parent="1" source="iiZEFcVaMC21RWIDHkid-11" target="iiZEFcVaMC21RWIDHkid-14">
          <mxGeometry relative="1" as="geometry" />
        </mxCell>
        <mxCell id="iiZEFcVaMC21RWIDHkid-32" style="rounded=0;orthogonalLoop=1;jettySize=auto;html=1;" edge="1" parent="1" source="iiZEFcVaMC21RWIDHkid-9" target="iiZEFcVaMC21RWIDHkid-30">
          <mxGeometry relative="1" as="geometry" />
        </mxCell>
        <mxCell id="iiZEFcVaMC21RWIDHkid-33" style="rounded=0;orthogonalLoop=1;jettySize=auto;html=1;" edge="1" parent="1" source="iiZEFcVaMC21RWIDHkid-11" target="iiZEFcVaMC21RWIDHkid-31">
          <mxGeometry relative="1" as="geometry" />
        </mxCell>
        <mxCell id="iiZEFcVaMC21RWIDHkid-11" value="Buyer" style="shape=umlActor;verticalLabelPosition=bottom;verticalAlign=top;html=1;outlineConnect=0;spacingBottom=0;spacing=2;spacingRight=0;spacingTop=0;labelPosition=center;align=center;" vertex="1" parent="1">
          <mxGeometry x="80" y="240" width="30" height="60" as="geometry" />
        </mxCell>
        <mxCell id="iiZEFcVaMC21RWIDHkid-14" value="Pay a listing" style="ellipse;whiteSpace=wrap;html=1;" vertex="1" parent="1">
          <mxGeometry x="380" y="420" width="120" height="80" as="geometry" />
        </mxCell>
        <mxCell id="iiZEFcVaMC21RWIDHkid-15" value="Message a user" style="ellipse;whiteSpace=wrap;html=1;" vertex="1" parent="1">
          <mxGeometry x="630" y="80" width="120" height="80" as="geometry" />
        </mxCell>
        <mxCell id="iiZEFcVaMC21RWIDHkid-23" style="rounded=0;orthogonalLoop=1;jettySize=auto;html=1;" edge="1" parent="1" source="iiZEFcVaMC21RWIDHkid-9" target="iiZEFcVaMC21RWIDHkid-7">
          <mxGeometry relative="1" as="geometry" />
        </mxCell>
        <mxCell id="iiZEFcVaMC21RWIDHkid-27" value="&amp;lt;&amp;lt;includes&amp;gt;&amp;gt;" style="rounded=0;orthogonalLoop=1;jettySize=auto;html=1;dashed=1;endArrow=open;endFill=0;" edge="1" parent="1" source="iiZEFcVaMC21RWIDHkid-25" target="iiZEFcVaMC21RWIDHkid-14">
          <mxGeometry relative="1" as="geometry" />
        </mxCell>
        <mxCell id="iiZEFcVaMC21RWIDHkid-25" value="Dispute a transaction" style="ellipse;whiteSpace=wrap;html=1;" vertex="1" parent="1">
          <mxGeometry x="620" y="220" width="120" height="80" as="geometry" />
        </mxCell>
        <mxCell id="iiZEFcVaMC21RWIDHkid-36" value="&amp;lt;&amp;lt;includes&amp;gt;&amp;gt;" style="rounded=0;orthogonalLoop=1;jettySize=auto;html=1;dashed=1;endArrow=open;endFill=0;" edge="1" parent="1" source="iiZEFcVaMC21RWIDHkid-28" target="iiZEFcVaMC21RWIDHkid-14">
          <mxGeometry relative="1" as="geometry" />
        </mxCell>
        <mxCell id="iiZEFcVaMC21RWIDHkid-28" value="Rate seller" style="ellipse;whiteSpace=wrap;html=1;" vertex="1" parent="1">
          <mxGeometry x="500" y="580" width="120" height="80" as="geometry" />
        </mxCell>
        <mxCell id="iiZEFcVaMC21RWIDHkid-30" value="Schedule delivery/meetup" style="ellipse;whiteSpace=wrap;html=1;" vertex="1" parent="1">
          <mxGeometry x="390" y="650" width="120" height="80" as="geometry" />
        </mxCell>
        <mxCell id="iiZEFcVaMC21RWIDHkid-35" value="&amp;lt;&amp;lt;includes&amp;gt;&amp;gt;" style="edgeStyle=orthogonalEdgeStyle;rounded=0;orthogonalLoop=1;jettySize=auto;html=1;dashed=1;endArrow=open;endFill=0;" edge="1" parent="1" source="iiZEFcVaMC21RWIDHkid-31" target="iiZEFcVaMC21RWIDHkid-30">
          <mxGeometry relative="1" as="geometry" />
        </mxCell>
        <mxCell id="iiZEFcVaMC21RWIDHkid-31" value="Approve delivery/meetup" style="ellipse;whiteSpace=wrap;html=1;" vertex="1" parent="1">
          <mxGeometry x="390" y="790" width="120" height="80" as="geometry" />
        </mxCell>
      </root>
    </mxGraphModel>
  </diagram>
</mxfile>
